<?xml version="1.0"?>
<svg xmlns="http://www.w3.org/2000/svg" viewBox="0 0 512 512" width="512px" height="512px"><g><g id="Outline"><path d="M438.4,364.8A8,8,0,0,0,432,352H343.2A40.069,40.069,0,0,0,304,320H280V300.708a158.99,158.99,0,0,0,75.339-38.055l15,15,11.314-11.314-15.009-15.008a160.994,160.994,0,0,0,11.834-14.7l-13.035-9.277a144.827,144.827,0,0,1-10.128,12.644l-11.377-11.377A127.927,127.927,0,0,0,163.371,48.058L151.994,36.68a144.754,144.754,0,0,1,12.645-10.127l-9.278-13.036a161.03,161.03,0,0,0-14.695,11.835L125.657,10.343,114.343,21.657l15,15C72.54,99.385,74.376,196.65,134.862,257.137A159.252,159.252,0,0,0,232,303.123V320H208a40.045,40.045,0,0,0-40,40,8,8,0,0,0,8,8h28.919a61.954,61.954,0,0,0,0,48H110.881a45.64,45.64,0,0,1,0-48H152V352H58.667a8,8,0,0,0-6.4,3.2,61.649,61.649,0,0,0,0,73.6,8,8,0,0,0,6.4,3.2H76.919a61.714,61.714,0,0,0,7.348,60.8,8,8,0,0,0,6.4,3.2H464a8,8,0,0,0,6.4-12.8,45.569,45.569,0,0,1,0-54.4A8,8,0,0,0,464,416H436.214A45.6,45.6,0,0,1,438.4,364.8ZM418.249,368a61.5,61.5,0,0,0-4.3,16H272.77a45.114,45.114,0,0,1,6.111-16ZM292.919,480H254.881a45.64,45.64,0,0,1,0-48h38.038A61.954,61.954,0,0,0,292.919,480ZM142.881,432h94.038a61.954,61.954,0,0,0,0,48H142.881A45.64,45.64,0,0,1,142.881,432ZM360,144a112.453,112.453,0,0,1-1.148,16h-20.43L320,147.719V120a8.009,8.009,0,0,0-1.14-4.116L296,77.784V42.821A112.141,112.141,0,0,1,360,144ZM280,36.666V80a8.009,8.009,0,0,0,1.14,4.116l22.86,38.1V152a8,8,0,0,0,3.562,6.656l24,16A8,8,0,0,0,336,176h19.334a112,112,0,0,1-218.186-48h16.606l6.485,25.94A8,8,0,0,0,168,160h24v24a8,8,0,0,0,1.344,4.438L208,210.422V232a8,8,0,0,0,8,8h32a8,8,0,0,0,6.247-3l32-40A8,8,0,0,0,280,184H264V152a8,8,0,0,0-8-8H208V130.422L220.281,112H248a8,8,0,0,0,7.155-11.578l-16-32A8,8,0,0,0,232,64H208V39.39a112,112,0,0,1,72-2.724ZM256,200h7.355l-19.2,24H224V208a8,8,0,0,0-1.344-4.438L208,181.578V160h40v32A8,8,0,0,0,256,200ZM192,47.035V72a8,8,0,0,0,8,8h27.056l8,16H216a8,8,0,0,0-6.656,3.562l-16,24A8,8,0,0,0,192,128v16H174.246l-6.485-25.94A8,8,0,0,0,160,112H140.666A112.516,112.516,0,0,1,192,47.035Zm-51.321.958,11.379,11.378A127.927,127.927,0,0,0,332.629,239.942l11.378,11.379c-56.47,50.577-143.583,48.749-197.83-5.5S90.1,104.462,140.679,47.993ZM248,303.925q8.012,0,16-.8V320H248ZM208,336h96a24.042,24.042,0,0,1,22.629,16H185.371A24.042,24.042,0,0,1,208,336Zm14.881,32h38.038a61.954,61.954,0,0,0,0,48H222.881A45.64,45.64,0,0,1,222.881,368Zm-160,0H92.919a61.954,61.954,0,0,0,0,48H62.877A45.644,45.644,0,0,1,62.877,368Zm32,64h30.042a61.954,61.954,0,0,0,0,48H94.877A45.644,45.644,0,0,1,94.877,432Zm216,48a45.114,45.114,0,0,1-6.111-16H445.946a61.5,61.5,0,0,0,4.3,16Zm135.065-32H304.77a45.114,45.114,0,0,1,6.111-16H450.249A61.5,61.5,0,0,0,445.946,448ZM278.881,416a45.114,45.114,0,0,1-6.111-16H413.946a61.5,61.5,0,0,0,4.3,16Z" data-original="#000000" class="active-path" data-old_color="#000000" fill="#FF6600"/></g></g> </svg>
