<?xml version="1.0"?>
<svg xmlns="http://www.w3.org/2000/svg" viewBox="0 0 64 64" width="512px" height="512px"><g><g id="Outline"><g><path d="M61,22a1,1,0,0,0-1,1V54H40a11.061,11.061,0,0,0-8,3.451A11.057,11.057,0,0,0,24,54H4V23a1,1,0,0,0-2,0V55a1,1,0,0,0,1,1H24a9.045,9.045,0,0,1,7.2,3.6,1,1,0,0,0,1.6,0A9.044,9.044,0,0,1,40,56H61a1,1,0,0,0,1-1V23A1,1,0,0,0,61,22Z" data-original="#000000" class="active-path" data-old_color="#000000" fill="#FF6600"/><path d="M12,36a1,1,0,0,0-1,1v8a1,1,0,0,0,1,1h2a3,3,0,0,0,0-6H13V37A1,1,0,0,0,12,36Zm3,7a1,1,0,0,1-1,1H13V42h1A1,1,0,0,1,15,43Z" data-original="#000000" class="active-path" data-old_color="#000000" fill="#FF6600"/><path d="M18.105,23.553l-4,8a1,1,0,1,0,1.79.894L17.118,30h3.764l1.223,2.447a1,1,0,1,0,1.79-.894l-4-8A1.042,1.042,0,0,0,18.105,23.553ZM19.882,28H18.118L19,26.236Z" data-original="#000000" class="active-path" data-old_color="#000000" fill="#FF6600"/><path d="M23.612,41.165a.6.6,0,0,1,.524.309,1,1,0,0,0,1.728-1.006A2.607,2.607,0,0,0,21,41.776v1.613A2.607,2.607,0,0,0,25.864,44.7a1,1,0,0,0-1.728-1.006.6.6,0,0,1-.524.309A.612.612,0,0,1,23,43.389V41.776A.612.612,0,0,1,23.612,41.165Z" data-original="#000000" class="active-path" data-old_color="#000000" fill="#FF6600"/><path d="M38.528,44.882a1,1,0,0,0,1.027-.05l3-2a1,1,0,1,0-1.11-1.664L40,42.132V36a1,1,0,0,0-1-1H36a1,1,0,0,0,0,2h2v7A1,1,0,0,0,38.528,44.882Z" data-original="#000000" class="active-path" data-old_color="#000000" fill="#FF6600"/><path d="M39,34a1,1,0,0,0,.707-1.707l-2-2a1,1,0,0,0-1.414,1.414l2,2A1,1,0,0,0,39,34Z" data-original="#000000" class="active-path" data-old_color="#000000" fill="#FF6600"/><path d="M53,28a1,1,0,0,0,0-2H44a1,1,0,0,0,0,2h2.867l-.25,2H44a1,1,0,0,0,0,2h2.367l-.359,2.876a.852.852,0,0,0,.009.124H44a1,1,0,0,0,0,2h9a1,1,0,0,0,0-2H52V31a1,1,0,0,0-1-1H48.633l.25-2Zm-3,4v3H48.008l.375-3Z" data-original="#000000" class="active-path" data-old_color="#000000" fill="#FF6600"/><path d="M53,47a1,1,0,0,0,1-1V40a1,1,0,0,0-1-1H45a1,1,0,0,0-1,1v6a1,1,0,0,0,2,0V45h6v1A1,1,0,0,0,53,47Zm-7-4V41h6v2Z" data-original="#000000" class="active-path" data-old_color="#000000" fill="#FF6600"/><path d="M7,40a1,1,0,0,0,1-1V20h9.425a1,1,0,0,0,0-2H7a1,1,0,0,0-1,1V39A1,1,0,0,0,7,40Z" data-original="#000000" class="active-path" data-old_color="#000000" fill="#FF6600"/><path d="M7,52H23.528a18.023,18.023,0,0,1,8.025,1.9c.013.006.029,0,.043.01A1.018,1.018,0,0,0,32,54h0a1,1,0,0,0,.4-.095c.015-.006.031,0,.046-.01A18.023,18.023,0,0,1,40.472,52H57a1,1,0,0,0,1-1V19a1,1,0,0,0-1-1H46.575a1,1,0,0,0,0,2H56V50H40.472A20.05,20.05,0,0,0,33,51.462V31a1,1,0,0,0-2,0V51.453A20.061,20.061,0,0,0,23.528,50H8V43a1,1,0,0,0-2,0v8A1,1,0,0,0,7,52Z" data-original="#000000" class="active-path" data-old_color="#000000" fill="#FF6600"/><path d="M32,28A11.937,11.937,0,0,0,43.824,14.02a1,1,0,1,0-1.972.328A9.936,9.936,0,0,1,33,25.949V24.535l2.555-1.7a1,1,0,0,0,.394-1.148L35.121,19.2l3.66-4.575a1,1,0,0,0-.334-1.52l-2.975-1.487a1,1,0,1,0-.9,1.789l1.869.935-3.227,4.033a1,1,0,0,0-.168.941l.759,2.276-2.365,1.576A1,1,0,0,0,31,24v1.949a9.921,9.921,0,0,1-4.6-1.666l.939-.344a1,1,0,0,0,.552-.492l2-4A1,1,0,0,0,29.8,18.4l-2.48-3.306,2.387-2.387a1,1,0,0,0-.048-1.46L25.984,8.031a10.013,10.013,0,0,1,2.805-1.493l1.262,3.778a1,1,0,0,0,1.781.239l2.8-4.193a10.063,10.063,0,0,1,5.979,4.571,1,1,0,0,0,1.723-1.016A12,12,0,1,0,32,28Zm.447-21.97L31.3,7.746l-.554-1.659A9.945,9.945,0,0,1,32,6C32.15,6,32.3,6.023,32.447,6.03ZM24.508,9.4l3.029,2.65-2.244,2.244A1,1,0,0,0,25.2,15.6l2.629,3.505L26.283,22.2l-1.608.588A9.942,9.942,0,0,1,24.508,9.4Z" data-original="#000000" class="active-path" data-old_color="#000000" fill="#FF6600"/></g></g></g> </svg>
