<?xml version="1.0"?>
<svg xmlns="http://www.w3.org/2000/svg" xmlns:xlink="http://www.w3.org/1999/xlink" version="1.1" id="Layer_1" x="0px" y="0px" viewBox="0 0 500 500" style="enable-background:new 0 0 500 500;" xml:space="preserve" width="512px" height="512px"><g><g>
	<g>
		<path d="M433.136,277.264c-23.416-26.6-55.576-53.948-92.964-79.372c-1.556-20.912-4.028-41.152-7.388-60.188    c12.848-4.056,25.256-7.316,37.012-9.676c40.056-8.044,68.608-4.788,76.396,8.704c8.172,14.14-5.28,43.048-35.1,75.444    c-4.388,4.764-4.084,12.18,0.684,16.568c4.756,4.388,12.184,4.084,16.572-0.684c38.708-42.044,52.26-78.648,38.164-103.056    c-13.644-23.632-48.676-30.54-101.328-19.968c-34.744,6.98-74.5,21.152-115.216,40.824c-18.824-9.084-37.528-17.036-55.632-23.632    C207.784,61.68,229.648,23.456,250,23.456c16.012,0,34.072,25.312,47.128,66.06c1.98,6.164,8.576,9.568,14.748,7.588    c6.168-1.972,9.568-8.58,7.588-14.748C302.2,28.48,278.18,0,250,0c-38.92,0-66.172,54.52-80.472,125.98    c0,0.004-0.008,0.012-0.008,0.02c-0.316,0.916-0.472,1.844-0.552,2.772c-4.248,21.876-7.28,45.272-9.088,69.136    c-17.368,11.82-33.688,24.1-48.52,36.552c-9.932-9.1-18.96-18.212-26.888-27.22c-26.992-30.656-38.452-57.016-30.664-70.508    c8.152-14.116,39.812-16.94,82.632-7.376c6.316,1.42,12.588-2.564,14-8.888c1.412-6.324-2.568-12.588-8.888-14    c-55.616-12.42-93.992-5.844-108.06,18.536c-13.648,23.632-2.108,57.428,33.368,97.736c23.416,26.6,55.572,53.944,92.964,79.368    c1.552,20.916,4.028,41.156,7.384,60.192c-12.848,4.056-25.248,7.316-37.012,9.676c-40.044,8.04-68.604,4.788-76.392-8.704    c-8.248-14.28,5.476-43.48,35.812-76.208c4.404-4.748,4.12-12.168-0.628-16.572c-4.752-4.404-12.168-4.128-16.576,0.624    C33.12,313.512,19.296,350.408,33.496,375c9.492,16.44,29.332,24.788,58.248,24.788c12.656,0,27.052-1.6,43.076-4.82    c34.744-6.98,74.504-21.152,115.22-40.824c18.82,9.084,37.52,17.036,55.632,23.636c-13.448,60.544-35.316,98.768-55.668,98.768    c-15.968,0-33.992-25.2-47.036-65.768c-1.984-6.168-8.584-9.56-14.752-7.576c-6.168,1.98-9.556,8.584-7.576,14.752    C197.896,471.628,221.884,500,250,500c38.872,0,66.108-54.408,80.424-125.752c0.032-0.08,0.076-0.148,0.096-0.224    c0.344-1.016,0.496-2.044,0.56-3.068c4.224-21.796,7.24-45.1,9.04-68.868c17.372-11.816,33.704-24.104,48.528-36.548    c9.932,9.1,18.956,18.212,26.884,27.22c26.988,30.656,38.448,57.016,30.66,70.508c-8.12,14.072-39.668,16.924-82.32,7.448    c-6.312-1.392-12.584,2.58-13.992,8.904c-1.408,6.328,2.584,12.588,8.904,13.996c18.228,4.052,34.592,6.056,48.856,6.052    c29.112,0,49.444-8.344,58.872-24.668C480.152,351.364,468.616,317.568,433.136,277.264z M129.268,250.012    c9.112-7.532,18.84-14.984,28.98-22.316c-0.24,7.444-0.364,14.888-0.364,22.304c0,7.508,0.16,14.98,0.396,22.424    C148.068,265.052,138.392,257.556,129.268,250.012z M310.36,145.436c1.964,11.652,3.552,23.8,4.836,36.244    c-6.276-3.884-12.652-7.712-19.132-11.456c-6.508-3.752-13.06-7.348-19.616-10.868C287.928,154.196,299.26,149.568,310.36,145.436    z M189.788,145.508c11.016,4.104,22.28,8.784,33.64,13.872c-6.5,3.496-13,7.096-19.484,10.84    c-6.468,3.74-12.828,7.588-19.12,11.492C186.148,169.072,187.828,156.992,189.788,145.508z M189.644,354.564    c-1.964-11.652-3.556-23.8-4.832-36.244c6.272,3.884,12.648,7.708,19.136,11.456c6.5,3.752,13.052,7.348,19.612,10.868    C212.072,345.804,200.74,350.432,189.644,354.564z M310.212,354.5c-11.02-4.112-22.28-8.792-33.636-13.88    c6.5-3.496,12.996-7.096,19.488-10.84c6.456-3.736,12.816-7.584,19.116-11.488C313.856,330.932,312.176,343.012,310.212,354.5z     M317.532,288.984c-10.756,7.056-21.844,13.92-33.196,20.48c-11.432,6.596-22.892,12.764-34.292,18.52    c-11.492-5.792-22.992-11.952-34.372-18.52c-11.432-6.6-22.504-13.44-33.188-20.436c-0.728-12.844-1.144-25.888-1.144-39.028    c0-13.372,0.404-26.372,1.132-38.976c10.752-7.052,21.828-13.92,33.2-20.488c11.432-6.6,22.888-12.768,34.284-18.52    c11.492,5.792,22.992,11.952,34.38,18.52c11.424,6.6,22.5,13.436,33.18,20.432c0.732,12.848,1.144,25.888,1.144,39.032    C318.66,263.376,318.252,276.376,317.532,288.984z M341.752,272.312c0.244-7.444,0.364-14.892,0.364-22.312    c0-7.508-0.16-14.98-0.388-22.424c10.2,7.368,19.872,14.856,28.988,22.396C361.596,257.508,351.904,264.976,341.752,272.312z" data-original="#000000" class="active-path" data-old_color="#000000" fill="#FF6600"/>
	</g>
</g><g>
	<g>
		<path d="M250,210.916c-21.552,0-39.088,17.532-39.088,39.084s17.536,39.084,39.088,39.084s39.088-17.532,39.088-39.084    C289.088,228.448,271.556,210.916,250,210.916z" data-original="#000000" class="active-path" data-old_color="#000000" fill="#FF6600"/>
	</g>
</g></g> </svg>
